<svg width="117" height="28" viewBox="0 0 117 28" fill="none" xmlns="http://www.w3.org/2000/svg">
<path d="M27.3413 26.1392H20.8849L18.9098 21.335H8.1495L6.35001 26.1392H0L9.70131 1.87487H16.6514L27.3413 26.1392ZM13.2648 7.67292L9.73697 17.1007H17.1458L13.2648 7.67292ZM50.7943 1.87487H56.0155V26.1392H50.0173V10.983L43.526 18.5959H42.6091L36.1182 10.983V26.1389H30.1201V1.87487H35.3413L43.0672 10.8759L50.7943 1.87487ZM71.2133 1.87487C79.9975 1.87487 84.5125 7.38866 84.5125 14.0417C84.5125 21.0147 80.1385 26.1392 70.5426 26.1392H60.5937V1.87487H71.2133ZM66.5914 21.692H70.5067C76.5395 21.692 78.339 17.5641 78.339 14.0057C78.339 9.84275 76.116 6.32151 70.4361 6.32151H66.5912V21.692H66.5914ZM96.4455 7.62816L88.8826 0H116.415V27.7664L108.852 20.1391V7.62816H96.4455ZM96.4366 9.1567L88.6502 17.0086V28H99.5479L107.334 20.1481H96.4366V9.1567Z" fill="#202430"/>
</svg>
