<svg width="82" height="32" viewBox="0 0 82 32" fill="none" xmlns="http://www.w3.org/2000/svg">
<path d="M5.64432 31.5492V10.0278H0V31.528H5.64441L5.64432 31.5492ZM43.0195 31.7617V26.4928C42.195 26.4928 41.4974 26.4504 40.9901 26.3654C40.3981 26.2805 39.9542 26.0679 39.6582 25.7705C39.3622 25.4731 39.172 25.0481 39.0663 24.4745C38.9818 23.9434 38.9395 23.2424 38.9395 22.3926V14.8929H43.0195V10.0278H38.9394V1.65715H33.295V22.4563C33.295 24.2196 33.4431 25.7068 33.739 26.8965C34.035 28.065 34.5424 29.0211 35.2399 29.7434C35.9375 30.4657 36.8677 30.9756 37.9881 31.2943C39.1297 31.613 40.5672 31.7617 42.2795 31.7617H43.0195ZM75.3211 31.5492V0H69.6767V31.5492H75.3211ZM27.8623 12.1523C26.298 10.4527 24.0994 9.60288 21.309 9.60288C19.9561 9.60288 18.7088 9.87908 17.6095 10.4314C16.4892 10.9838 15.559 11.7486 14.798 12.7258L14.502 13.1296V10.0278H8.94226V31.528H14.5442V20.0768V20.4805C14.6077 18.4622 15.0939 16.975 16.024 16.019C17.0177 14.9992 18.2225 14.4893 19.5967 14.4893C21.2245 14.4893 22.4717 14.9992 23.2962 15.9765C24.0994 16.9538 24.5222 18.3347 24.5222 20.098V31.528H30.2088V19.3332C30.23 16.2739 29.4267 13.8519 27.8623 12.1523ZM66.7593 20.7566C66.7593 19.2058 66.4846 17.7611 65.9561 16.4014C65.4064 15.0628 64.6453 13.8731 63.6941 12.8533C62.7217 11.8336 61.559 11.0476 60.2061 10.474C58.8531 9.90028 57.3522 9.62407 55.7244 9.62407C54.1812 9.62407 52.7225 9.92156 51.3696 10.4952C50.0167 11.09 48.8328 11.8761 47.8393 12.8746C46.8457 13.8731 46.0424 15.0629 45.4716 16.4227C44.8797 17.7823 44.6048 19.2482 44.6048 20.7992C44.6048 22.3501 44.8798 23.816 45.4293 25.1756C45.9789 26.5353 46.7612 27.7251 47.7336 28.7237C48.706 29.7221 49.911 30.5295 51.3062 31.1031C52.7014 31.6979 54.2446 31.9954 55.8936 31.9954C60.6711 31.9954 63.6306 29.8071 65.4064 27.7676L61.3476 24.6657C60.502 25.6855 58.4726 27.0665 55.9358 27.0665C54.3503 27.0665 53.0397 26.7053 52.0461 25.9617C51.0525 25.2394 50.376 24.2196 50.0166 22.9662L49.9532 22.7749H66.7593V20.7566ZM49.9955 18.7808C49.9955 17.2086 51.7924 14.468 55.661 14.4468C59.5295 14.4468 61.3476 17.1874 61.3476 18.7596L49.9955 18.7808ZM81.7476 28.8298C81.6419 28.5749 81.494 28.3624 81.3037 28.1713C81.1134 27.98 80.902 27.8313 80.6484 27.7251C80.3947 27.6189 80.1199 27.5552 79.845 27.5552C79.5491 27.5552 79.2954 27.6189 79.0418 27.7251C78.788 27.8313 78.5766 27.98 78.3864 28.1713C78.1962 28.3624 78.0481 28.5749 77.9425 28.8298C77.8368 29.0848 77.7734 29.361 77.7734 29.6372C77.7734 29.9346 77.8368 30.1895 77.9425 30.4445C78.0481 30.6993 78.1962 30.9119 78.3864 31.1031C78.5766 31.2943 78.788 31.443 79.0418 31.5492C79.2954 31.6555 79.5703 31.7191 79.845 31.7191C80.141 31.7191 80.3947 31.6555 80.6484 31.5492C80.902 31.443 81.1134 31.2943 81.3037 31.1031C81.494 30.9119 81.6419 30.6994 81.7477 30.4445C81.8535 30.1896 81.9168 29.9134 81.9168 29.6371C81.9168 29.3608 81.8533 29.0848 81.7477 28.8298H81.7476ZM81.4094 30.317C81.3249 30.5294 81.198 30.7206 81.05 30.8694C80.902 31.0181 80.7118 31.1455 80.5004 31.2306C80.289 31.3155 80.0776 31.358 79.8239 31.358C79.5914 31.358 79.3588 31.3155 79.1475 31.2306C78.9362 31.1456 78.7458 31.0181 78.5978 30.8693C78.4499 30.7206 78.323 30.5294 78.2384 30.317C78.1538 30.1045 78.1116 29.8921 78.1116 29.6372C78.1116 29.4034 78.1538 29.1698 78.2385 28.9573C78.323 28.7449 78.4499 28.5536 78.5978 28.4049C78.7458 28.2562 78.9361 28.1287 79.1475 28.0437C79.3588 27.9587 79.5702 27.9163 79.8239 27.9163C80.0564 27.9163 80.289 27.9588 80.5004 28.0438C80.7118 28.1287 80.902 28.2562 81.05 28.405C81.198 28.5536 81.3249 28.7448 81.4094 28.9573C81.494 29.1699 81.5362 29.3822 81.5362 29.6372C81.5362 29.8921 81.494 30.1045 81.4094 30.317ZM80.2256 29.8283C80.3946 29.8071 80.5215 29.7434 80.6272 29.6372C80.7329 29.5309 80.7963 29.3822 80.7963 29.1698C80.7963 28.936 80.7329 28.7661 80.5849 28.6386C80.4581 28.5111 80.2256 28.4474 79.9507 28.4474H79.0206V30.8481H79.4646V29.8708H79.7816L80.3735 30.8481H80.8386L80.2256 29.8283ZM79.993 29.4672H79.4644V28.7873H79.9929C80.0564 28.7873 80.1198 28.8085 80.1832 28.8298C80.2467 28.8511 80.2889 28.8936 80.31 28.9361C80.3524 28.9785 80.3524 29.0423 80.3524 29.1272C80.3524 29.2122 80.3312 29.276 80.31 29.3185C80.2678 29.361 80.2255 29.4034 80.1832 29.4247C80.1198 29.4459 80.0564 29.4672 79.9929 29.4672H79.993Z" fill="#202430"/>
</svg>
