<svg width="102" height="31" viewBox="0 0 102 31" fill="none" xmlns="http://www.w3.org/2000/svg">
<path d="M7.5599 29.7061C6.98428 29.7061 6.69586 29.4581 6.69586 28.9596V28.8031C6.69586 28.4901 6.95914 28.0181 7.48451 27.3897C8.035 26.7359 8.31025 26.081 8.31025 25.4272V4.77949H6.32009C5.74447 4.77949 5.21911 5.02871 4.74281 5.52594C4.29727 6.01538 3.92989 6.5714 3.65379 7.17415C3.40248 7.74964 3.09133 8.2866 2.71556 8.78383C2.33979 9.28106 1.96402 9.53028 1.58824 9.53028H0.950391C0.24911 9.53028 -0.0644315 9.14983 0.0109622 8.39134L0.762505 3.05183C0.836702 2.24157 1.26274 1.83584 2.03941 1.83584H21.3426C22.0929 1.83584 22.519 2.24157 22.6183 3.05183L23.4081 8.42987C23.4572 8.77059 23.395 9.04509 23.219 9.25457C23.0443 9.43758 22.7942 9.52908 22.4687 9.52908H21.8296C21.4551 9.52908 21.0793 9.28106 20.7035 8.78263C20.3278 8.28419 20.0022 7.74964 19.727 7.17415C19.4517 6.57218 19.076 6.02317 18.6009 5.52474C18.1246 5.02871 17.5992 4.77949 17.0236 4.77949H15.0705V25.4272C15.0705 26.081 15.3338 26.7359 15.8592 27.3897C16.4097 28.0181 16.6849 28.4889 16.6849 28.8031V28.9596C16.6849 29.4581 16.3857 29.7061 15.7838 29.7061H7.5599ZM39.3545 25.4272C39.4299 26.0557 39.5675 26.5662 39.7673 26.9587C39.9935 27.3247 40.2053 27.5606 40.4064 27.6654C40.6314 27.7701 40.8312 27.9001 41.0071 28.0579C41.1819 28.2144 41.2704 28.4106 41.2704 28.6466C41.2704 29.5098 39.8559 29.942 37.0268 29.942C35.8744 29.942 35.0104 29.7976 34.4347 29.5086C33.8842 29.2221 33.5336 28.7381 33.384 28.0579C32.4314 29.4183 30.8422 30.0986 28.6139 30.0986C26.5112 30.0986 24.7963 29.5881 23.468 28.5671C22.1671 27.5474 21.5173 26.0689 21.5173 24.1318C21.5173 22.2476 22.1671 20.7824 23.468 19.735C24.7712 18.6634 26.3736 18.1265 28.2764 18.1265C29.7532 18.1265 31.0169 18.4528 32.07 19.1077V18.9897C31.8187 16.3988 31.5315 14.6459 31.2048 13.7285C30.9056 12.8135 30.3036 12.3559 29.4025 12.3559C28.8269 12.3559 28.3638 12.6304 28.0131 13.1795C27.6592 13.7369 27.3932 14.3461 27.2245 14.9854C27.0692 15.6502 26.7605 16.2688 26.3233 16.7913C25.8722 17.3415 25.2714 17.616 24.5211 17.616C23.7444 17.616 23.1065 17.38 22.6063 16.9093C22.13 16.4385 21.8919 15.8233 21.8919 15.0648C21.8919 13.5467 22.6183 12.4077 24.0699 11.6492C25.5215 10.8643 27.2999 10.4718 29.4025 10.4718C31.9061 10.4718 33.9716 11.1905 35.5992 12.6305C37.2506 14.0439 38.2284 15.9666 38.5287 18.401L39.3545 25.4272ZM30.6794 28.0964C31.255 28.0964 31.7182 27.8086 32.0688 27.2332C32.4446 26.6577 32.6313 26.0027 32.6313 25.2707L32.4817 23.4648C32.2316 21.2929 31.4561 20.2069 30.1541 20.2069C29.5784 20.2069 29.1153 20.4549 28.7647 20.9534C28.414 21.4229 28.2381 22.0646 28.2381 22.8761C28.2381 24.3413 28.4511 25.585 28.8772 26.6047C29.3271 27.5992 29.9291 28.0976 30.6794 28.0976V28.0964ZM42.9147 29.7061C42.3379 29.7061 42.0507 29.4581 42.0507 28.9596V28.8031C42.0507 28.4901 42.2876 28.0181 42.7639 27.3897C43.2642 26.7359 43.5143 26.081 43.5143 25.4272V7.48838C43.5143 6.80815 43.2642 6.1532 42.7639 5.52594C42.2876 4.87099 42.0507 4.41349 42.0507 4.15103V3.99452C42.0507 3.70557 42.3259 3.40458 42.8764 3.09156L48.5465 0.186425C49.0731 -0.0483449 49.4859 -0.0615884 49.7863 0.147899C50.1118 0.330899 50.2746 0.618643 50.2746 1.01113V25.4272C50.2746 26.081 50.5498 26.7359 51.1003 27.3897C51.6508 28.0181 51.9261 28.4889 51.9261 28.8031V28.9596C51.9261 29.4581 51.6269 29.7061 51.0261 29.7061H42.9147ZM73.5102 26.4085C73.6358 26.5915 74.0116 26.9322 74.6375 27.4294C75.2885 27.9266 75.614 28.3841 75.614 28.8031V28.9596C75.614 29.4581 75.3268 29.7061 74.75 29.7061H66.8636C66.288 29.7061 65.9995 29.4448 65.9995 28.9211V28.8031C65.9995 28.4901 66.1874 28.1096 66.5632 27.6642C66.939 27.1946 67.0144 26.7745 66.7882 26.4085L63.484 21.2664L61.6052 23.0723V25.4272C61.6052 26.081 61.8804 26.7359 62.4321 27.3897C63.0077 28.0181 63.2961 28.4889 63.2961 28.8031V28.9596C63.2961 29.4581 62.9958 29.7061 62.395 29.7061H54.2824C53.6817 29.7061 53.3813 29.4581 53.3813 28.9596V28.8031C53.3813 28.4901 53.6326 28.0181 54.1328 27.3897C54.6331 26.7359 54.8844 26.081 54.8844 25.4272V7.48838C54.8844 6.80815 54.5828 6.1532 53.982 5.52594C53.3813 4.87099 53.0809 4.41349 53.0809 4.15103V3.99452C53.0809 3.70557 53.3561 3.40458 53.9066 3.09156L59.9178 0.186425C60.4432 -0.023062 60.856 -0.0351015 61.1564 0.147899C61.4568 0.330899 61.6076 0.618643 61.6076 1.01113V19.6567L66.6769 15.1034C66.9773 14.8939 67.0898 14.6326 67.0156 14.3184C66.9698 14.0134 66.8395 13.7276 66.6398 13.4937C66.4442 13.2027 66.2439 12.9149 66.039 12.6305C65.838 12.3174 65.7387 12.0405 65.7387 11.8057V11.6492C65.7387 11.1255 66.0259 10.8643 66.6015 10.8643H72.536C73.1105 10.8643 73.3989 11.1123 73.3989 11.6107V11.7672C73.3989 12.0802 73.2242 12.4077 72.8735 12.7484C72.5229 13.0615 72.0227 13.4419 71.3716 13.8862C70.837 14.2331 70.3344 14.6276 69.8698 15.0648L67.4655 17.38L73.5102 26.4085ZM81.0831 8.54786C79.8062 8.54786 78.7674 8.18186 77.9656 7.44865C77.1638 6.69016 76.7641 5.74747 76.7641 4.62298C76.7641 3.49729 77.165 2.56784 77.9656 1.83584C78.7674 1.07735 79.8062 0.6969 81.0831 0.6969C82.3348 0.6969 83.3616 1.07614 84.1622 1.83584C84.964 2.56784 85.3637 3.49729 85.3637 4.62298C85.3637 5.74747 84.964 6.69016 84.1622 7.44865C83.3604 8.18186 82.3348 8.54786 81.0831 8.54786ZM77.0645 29.7061C76.4637 29.7061 76.1633 29.4581 76.1633 28.9596V28.8031C76.1633 28.4901 76.4146 28.0049 76.9149 27.3511C77.4151 26.6974 77.6652 26.0425 77.6652 25.3887V17.9302C77.6652 17.25 77.4151 16.5951 76.9149 15.9678C76.4134 15.3128 76.1633 14.8674 76.1633 14.6314V14.4749C76.1633 14.1619 76.4505 13.8609 77.0274 13.5719L82.6974 10.668C83.224 10.432 83.6369 10.4056 83.9372 10.5898C84.2376 10.7728 84.3884 11.0737 84.3884 11.4927V25.3887C84.3884 26.0425 84.6637 26.6962 85.2141 27.3511C85.7898 28.0049 86.0782 28.4889 86.0782 28.8031V28.9596C86.0782 29.4569 85.7646 29.7061 85.1388 29.7061H77.0645ZM95.4868 30.0986C93.584 30.0986 92.0834 29.4701 90.9812 28.2144C89.9041 26.9587 89.3656 25.166 89.3656 22.8363V13.5334H87.9391C87.7044 13.5389 87.4765 13.4546 87.3012 13.2974C87.1491 13.1094 87.0688 12.8728 87.0751 12.6305V11.7672C87.0751 11.1652 87.3635 10.8643 87.9391 10.8643H88.6523C89.8048 10.8643 90.7945 10.5103 91.6202 9.80478C92.446 9.07037 92.9845 8.1036 93.2346 6.89965C93.3603 6.21942 93.6977 5.8787 94.2482 5.8787H95.1123C95.7884 5.8787 96.1259 6.21942 96.1259 6.89965V10.8643H99.9949C100.245 10.8643 100.445 10.9558 100.596 11.1388C100.77 11.2953 100.859 11.5048 100.859 11.7672V12.6305C100.861 12.7537 100.839 12.8761 100.794 12.9906C100.749 13.1051 100.681 13.2094 100.596 13.2974C100.517 13.3768 100.424 13.4388 100.32 13.4794C100.217 13.52 100.106 13.5384 99.9949 13.5334H96.1259V22.9543C96.1259 23.6081 96.2886 24.1318 96.6142 24.5243C96.9397 24.8915 97.3406 25.0745 97.8157 25.0745C98.8927 25.0745 99.7185 24.5905 100.295 23.6213C100.47 23.3865 100.67 23.2553 100.896 23.2288C101.121 23.1771 101.309 23.2168 101.458 23.3468C101.634 23.478 101.722 23.6598 101.722 23.897C101.722 25.5452 101.159 26.9972 100.032 28.2541C98.931 29.4833 97.416 30.0986 95.4868 30.0986Z" fill="#202430"/>
</svg>
