<svg width="183" height="24" viewBox="0 0 183 24" fill="none" xmlns="http://www.w3.org/2000/svg">
<path d="M156.07 9.50953V23.9719H160.658V14.3303H177.438V23.9719H182.027V9.50953H156.07ZM160.134 4.8208H177.832C180.322 4.35854 182.092 2.11323 182.617 0H155.349C155.873 2.11323 157.708 4.2925 160.134 4.8208ZM142.108 23.9719C144.402 22.9814 145.648 21.2644 146.172 19.2832H125.524V0.0660384H120.87V23.9719H142.108ZM86.4578 4.75477H102.845C105.336 4.02834 107.368 2.11323 107.892 0.0660384H81.935V14.1983H103.173V19.1511H86.5234C83.9015 19.8776 81.6728 21.6606 80.5585 23.9719H107.761V9.50953H86.5234L86.4578 4.75477ZM46.0803 4.8208H63.7782C66.2691 4.35854 68.1044 2.11323 68.5632 0H41.2297C41.7541 2.11323 43.5895 4.2925 46.0803 4.8208ZM46.0803 14.2643H63.7782C66.2691 13.802 68.1044 11.5567 68.5632 9.44349H41.2297C41.7541 11.5567 43.5895 13.736 46.0803 14.2643ZM46.0803 23.9719H63.7782C66.2691 23.5097 68.1044 21.2644 68.5632 19.1511H41.2297C41.7541 21.2644 43.5895 23.5097 46.0803 23.9719Z" fill="#202430"/>
<path d="M0 0.0660384C0.524384 2.17927 2.35973 4.2925 4.785 4.8208H12.2575L12.6508 4.95288V23.9059H17.3047V4.95288L17.6979 4.8208H25.1704C27.6612 4.16042 29.431 2.17927 29.9554 0.0660384V0L0 0.0660384Z" fill="#202430"/>
</svg>
