<svg width="109" height="20" viewBox="0 0 109 20" fill="none" xmlns="http://www.w3.org/2000/svg">
<path d="M5.73327 19.492L0 5.6687H3.75252L7.34149 14.8476L10.8123 5.6687H14.3922L8.81343 19.492H5.73327ZM24.3778 12.5116C24.3819 11.9556 24.3147 11.4014 24.1779 10.8627C24.0622 10.386 23.8588 9.93547 23.5782 9.53445C23.3253 9.17093 22.9966 8.86764 22.6151 8.64587C22.208 8.41426 21.7467 8.29719 21.2794 8.30694C20.8121 8.29674 20.3507 8.41383 19.9438 8.64587C19.5583 8.86556 19.2261 9.16911 18.9716 9.53445C18.6932 9.93892 18.4928 10.3926 18.381 10.8719C18.2449 11.4076 18.1777 11.9587 18.1811 12.5116C18.1765 13.0677 18.2437 13.622 18.381 14.1605C18.4954 14.6358 18.689 15.088 18.9534 15.498C19.2048 15.8844 19.549 16.2005 19.9541 16.4167C20.3592 16.6329 20.812 16.7423 21.2703 16.7346C21.7285 16.7487 22.1823 16.642 22.5871 16.4251C22.9918 16.2082 23.3334 15.8887 23.5782 15.498C23.8548 15.0947 24.0579 14.6449 24.1779 14.1697C24.3159 13.6281 24.3831 13.0707 24.3778 12.5116ZM27.8395 12.5208C27.8397 13.4222 27.7017 14.3183 27.4306 15.1773C27.1663 16.0248 26.7506 16.8165 26.204 17.5133C25.6179 18.2566 24.8671 18.8509 24.0118 19.2487C23.1565 19.6464 22.2207 19.8364 21.2794 19.8034C20.3371 19.8342 19.4007 19.6433 18.5443 19.2458C17.6879 18.8483 16.9352 18.2551 16.3457 17.5133C15.8003 16.8157 15.3847 16.0243 15.1191 15.1773C14.5792 13.4575 14.5792 11.6115 15.1191 9.89171C15.385 9.05326 15.8007 8.2709 16.3457 7.58325C16.9003 6.89517 17.5983 6.33849 18.3901 5.95268C19.2921 5.52151 20.2814 5.30823 21.2794 5.32976C22.2148 5.30369 23.1438 5.49312 23.9956 5.88363C24.8474 6.27414 25.5996 6.85543 26.195 7.58325C26.7401 8.26113 27.1581 9.03062 27.4306 9.89171C27.7032 10.7528 27.8395 11.6322 27.8395 12.5208ZM38.4338 8.71916C37.8319 8.46348 37.1878 8.32367 36.5348 8.30694C36.0244 8.28202 35.5158 8.38632 35.0556 8.61033C34.5953 8.83434 34.198 9.17093 33.8999 9.58941C33.6129 9.99152 33.3976 10.441 33.2639 10.9177C33.1229 11.4089 33.0525 11.9179 33.0549 12.4292C33.0517 12.9841 33.1127 13.5374 33.2366 14.0781C33.3458 14.5665 33.5396 15.0316 33.809 15.4522C34.0544 15.8392 34.3837 16.1649 34.7721 16.4049C35.1538 16.643 35.6171 16.7713 36.135 16.7713C36.6032 16.7608 37.0618 16.635 37.4707 16.4049C37.8625 16.2187 38.1958 15.927 38.4338 15.5621V8.71916ZM38.7155 19.492L38.5792 18.4293C38.2172 18.8258 37.786 19.1519 37.3071 19.3912C36.6127 19.6907 35.8606 19.8297 35.1059 19.798C34.3512 19.7663 33.6132 19.5647 32.9459 19.208C32.2304 18.8111 31.61 18.2608 31.1287 17.5957C30.6202 16.8964 30.2388 16.1117 30.002 15.2781C29.7468 14.3848 29.6183 13.4596 29.6204 12.5299C29.6204 11.6231 29.7476 10.7436 30.0111 9.88255C30.2674 9.04653 30.6773 8.26654 31.2195 7.58325C31.8052 6.85118 32.5517 6.26649 33.4001 5.87538C34.2485 5.48427 35.1755 5.29748 36.1078 5.32976C36.8347 5.32976 37.607 5.46717 38.4338 5.73282V0.373906H41.9592V19.492H38.7155ZM51.8811 13.0063C51.1038 13.0588 50.3302 13.1567 49.5642 13.2994C48.8009 13.4552 48.2739 13.7117 47.9741 14.0872C47.6934 14.4303 47.5393 14.8609 47.538 15.3056C47.538 15.7636 47.7015 16.13 48.0377 16.4049C48.4447 16.7053 48.9424 16.8542 49.446 16.8262C49.9003 16.8262 50.3546 16.7346 50.7817 16.5423C51.1856 16.3645 51.5572 16.1199 51.8811 15.8186V13.0063ZM52.1628 19.4736L52.0265 18.4477C51.6235 18.8876 51.1263 19.2291 50.5727 19.4462C49.4084 19.9107 48.1159 19.9303 46.9383 19.5011C46.0928 19.2169 45.3602 18.6666 44.8482 17.9311C44.3362 17.1956 44.072 16.3138 44.0944 15.4155C44.0827 14.8106 44.2103 14.2111 44.4673 13.6643C44.7243 13.1175 45.1036 12.6383 45.5754 12.2643C46.0522 11.8903 46.5821 11.5908 47.1473 11.3757C48.2294 10.9888 49.3561 10.7425 50.5 10.6429L51.8629 10.5146V10.3131C51.8629 9.55277 51.663 9.0123 51.2723 8.68252C50.8068 8.33367 50.234 8.16173 49.655 8.19701C48.6252 8.2022 47.6223 8.52859 46.7838 9.13138C46.6006 9.24874 46.4246 9.37722 46.2568 9.51613L45.0848 7.02446C45.647 6.5944 46.2644 6.2431 46.9201 5.98016C48.628 5.2644 50.5236 5.14193 52.3081 5.63206C52.9217 5.82543 53.4831 6.15799 53.9494 6.60422C54.4156 7.05044 54.7742 7.59845 54.9976 8.20617C55.2707 8.9724 55.4001 9.78315 55.3792 10.5971V19.4828L52.1628 19.4736ZM66.2733 3.52513C65.6453 3.24166 64.9622 3.10392 64.2744 3.12207C63.7928 3.12207 63.3749 3.26864 63.0478 3.57093C62.7116 3.86407 62.5481 4.34958 62.5481 5.0183V5.6687H65.5101V8.53595H62.5753V19.492H59.0499V8.53595H57.2327V5.6687H59.0499V4.93586C59.0499 4.02896 59.1681 3.26864 59.3952 2.64572C59.5806 2.08774 59.8935 1.58149 60.3085 1.16778C60.7236 0.754074 61.2293 0.444486 61.7848 0.263979C63.4037 -0.171919 65.1192 -0.0658299 66.6731 0.566277L66.2733 3.52513ZM75.8863 12.5116C75.8888 11.9557 75.8216 11.4017 75.6864 10.8627C75.5707 10.386 75.3673 9.93547 75.0867 9.53445C74.8339 9.17093 74.5052 8.86764 74.1236 8.64587C73.7166 8.41426 73.2553 8.29719 72.788 8.30694C72.3206 8.29674 71.8592 8.41383 71.4523 8.64587C71.0679 8.86704 70.7361 9.17032 70.4801 9.53445C70.2013 9.93981 69.9981 10.393 69.8805 10.8719C69.6039 11.9535 69.6039 13.0881 69.8805 14.1697C70.0003 14.6418 70.1968 15.0906 70.462 15.498C70.7104 15.8759 71.0434 16.1896 71.4342 16.414C71.8496 16.6399 72.316 16.7535 72.788 16.7438C73.2455 16.7553 73.698 16.6464 74.1011 16.428C74.5042 16.2095 74.8439 15.889 75.0867 15.498C75.3634 15.0947 75.5665 14.6449 75.6864 14.1697C75.8228 13.6278 75.8899 13.0706 75.8863 12.5116ZM79.3481 12.5208C79.3498 13.4224 79.2119 14.3187 78.9392 15.1773C78.6764 16.0255 78.2606 16.8174 77.7126 17.5133C77.1265 18.2566 76.3756 18.8509 75.5204 19.2487C74.6651 19.6464 73.7293 19.8364 72.788 19.8034C71.8457 19.8342 70.9092 19.6433 70.0529 19.2458C69.1965 18.8483 68.4437 18.2551 67.8543 17.5133C67.3089 16.8157 66.8933 16.0243 66.6277 15.1773C66.0805 13.4586 66.0805 11.6104 66.6277 9.89171C66.8908 9.05392 67.3034 8.27161 67.8452 7.58325C68.4024 6.89411 69.1036 6.33736 69.8986 5.95268C70.8007 5.52151 71.7899 5.30823 72.788 5.32976C73.7234 5.30369 74.6523 5.49312 75.5041 5.88363C76.3559 6.27414 77.1081 6.85543 77.7035 7.58325C78.2487 8.26113 78.6666 9.03062 78.9392 9.89171C79.2118 10.7528 79.3481 11.6322 79.3481 12.5208ZM90.2967 19.492V11.6139C90.351 10.7483 90.1211 9.88874 89.6425 9.16803C89.4302 8.88821 89.1543 8.66392 88.8381 8.51406C88.5218 8.36421 88.1745 8.29317 87.8253 8.30694C87.2862 8.30069 86.7565 8.45008 86.2989 8.73748C85.8597 9.0051 85.4539 9.32495 85.0904 9.69018V19.492H81.5651V5.6687H84.7815L84.9451 6.76796C86.0542 5.83568 87.4534 5.32655 88.8975 5.32976C89.6244 5.32976 90.2876 5.43969 90.8964 5.65954C91.4904 5.87591 92.0235 6.23424 92.4501 6.70384C92.8953 7.18019 93.2315 7.80311 93.4677 8.56343C93.704 9.33292 93.8221 10.249 93.8221 11.3116V19.492H90.2967ZM104.789 10.9177C104.763 10.4878 104.661 10.066 104.489 9.67186C104.349 9.34714 104.145 9.05429 103.889 8.81077C103.449 8.39995 102.872 8.17105 102.272 8.16953C101.628 8.18123 101.009 8.42493 100.528 8.85657C100.237 9.11746 100.002 9.4342 99.835 9.78815C99.6681 10.1421 99.573 10.5261 99.5554 10.9177H104.789ZM99.4736 13.4735C99.5463 14.6369 99.9097 15.4796 100.564 15.9926C101.284 16.5325 102.166 16.8073 103.063 16.7713C103.901 16.7702 104.732 16.615 105.516 16.3133C105.803 16.1984 106.083 16.0638 106.352 15.9102C106.535 15.805 106.706 15.679 106.861 15.5346L107.805 18.4293C107.271 18.794 106.686 19.0779 106.07 19.2721C104.945 19.6199 103.776 19.7989 102.599 19.8034C101.733 19.8065 100.873 19.6609 100.055 19.3729C99.2607 19.0934 98.5376 18.6398 97.938 18.0446C97.3033 17.4035 96.8082 16.636 96.4843 15.7911C96.0998 14.7677 95.9147 13.679 95.9391 12.5849C95.9391 11.4124 96.1118 10.3864 96.4389 9.48865C96.8455 8.25793 97.6318 7.19054 98.6829 6.44233C99.734 5.69412 100.995 5.30428 102.281 5.32976C103.109 5.32143 103.932 5.4674 104.707 5.7603C105.443 6.04428 106.079 6.49315 106.615 7.08858C107.16 7.69318 107.587 8.47183 107.896 9.43368C108.214 10.3864 108.369 11.5223 108.369 12.8414V13.4735H99.4736Z" fill="#202430"/>
</svg>
